<?xml version="1.0" encoding="utf-8"?>
<!-- Generator: Adobe Illustrator 18.1.0, SVG Export Plug-In . SVG Version: 6.00 Build 0)  -->
<svg version="1.1" id="Ebene" xmlns="http://www.w3.org/2000/svg" xmlns:xlink="http://www.w3.org/1999/xlink" x="0px" y="0px"
	 viewBox="0 0 121.8 82.1" enable-background="new 0 0 121.8 82.1" xml:space="preserve">
<g>
	<path fill="#000000" d="M112.5,82.1c-5.8,0-9.2-2.9-9.4-7.1h5.4c0,1.3,0.8,3.2,4.3,3.3c2.3,0,3.4-1.4,3.4-2.4
		c-0.1-1.6-2.2-1.8-4.4-2.1c-2.2-0.3-4-0.8-5.4-1.4c-1.7-0.9-2.9-2.8-2.9-5c0-3.7,3.2-6.7,8.6-6.7c5.2,0,8.5,2.7,8.8,6.8h-5.2
		c-0.1-1.1-0.3-2.8-3.3-2.8c-2.1,0-3.4,0.4-3.6,1.8c0,2.1,4.3,2,7.7,2.9c3.2,0.8,5.3,2.8,5.3,5.6C121.8,80.1,117.6,82.1,112.5,82.1"
		/>
	<polygon fill="#000000" points="13.1,47.8 31.1,37.4 40.6,53.8 16.6,53.8 	"/>
	<rect x="48.3" y="60.9" fill="#000000" width="5.1" height="20.7"/>
	<path fill="#000000" d="M10.7,82.1C4.9,82.1,0,77.2,0,71.3c0-5.9,4.9-10.7,10.7-10.7c2.3,0,4.4,0.6,6.2,1.9v-1.7H22v20.7h-5.1v-1.4
		C15.2,81.4,13.1,82.1,10.7,82.1 M4.9,71.3c0,3.2,2.7,5.9,6,5.9c3.3,0,6-2.7,6-5.9c0-3.2-2.7-5.9-6-5.9C7.7,65.4,4.9,68.1,4.9,71.3"
		/>
	<polygon fill="#000000" points="79.8,53.8 54.8,10.4 72.8,0 103.9,53.8 	"/>
	<path fill="#000000" d="M34.5,82.1c-6,0-10.8-4.9-10.8-10.7c0-5.9,4.9-10.7,10.8-10.7c2.3,0,4.3,0.6,6.1,1.9v-8.7h5.1v27.8h-5.1
		v-1.4C38.9,81.4,36.8,82.1,34.5,82.1 M28.7,71.3c0,3.2,2.7,5.9,6,5.9c3.2,0,6-2.7,6-5.9c0-3.2-2.7-5.9-6-5.9
		C31.4,65.4,28.7,68.1,28.7,71.3"/>
	<polygon fill="#000000" points="34.1,29.3 52.2,18.9 72.4,53.8 53.4,53.8 53.4,59 48.3,59 48.3,53.8 	"/>
	<path fill="#000000" d="M89.9,82.1c-5.9,0-10.8-4.9-10.8-10.7c0-5.9,4.9-10.7,10.8-10.7c2.3,0,4.4,0.6,6.1,1.9v-1.7h5.1v20.7H96
		v-1.4C94.3,81.4,92.2,82.1,89.9,82.1 M84.2,71.3c0,3.2,2.7,5.9,5.9,5.9c3.2,0,5.9-2.7,5.9-5.9c0-3.2-2.7-5.9-5.9-5.9
		C86.9,65.4,84.2,68.1,84.2,71.3"/>
	<path fill="#000000" d="M72.4,53.8h5.1v27.8h-5.1v-1.4c-1.7,1.2-3.8,1.8-6.2,1.8c-5.9,0-10.7-4.9-10.7-10.7
		c0-5.9,4.9-10.7,10.7-10.7c2.3,0,4.4,0.6,6.2,1.9V53.8z M60.5,71.3c0,3.2,2.7,5.9,5.9,5.9c3.3,0,6-2.7,6-5.9c0-3.2-2.7-5.9-6-5.9
		C63.2,65.4,60.5,68.1,60.5,71.3"/>
</g>
</svg>
